<svg xmlns="http://www.w3.org/2000/svg" version="1.1" xmlns:xlink="http://www.w3.org/1999/xlink" width="1000" height="1000"><metadata><rdf:RDF xmlns:rdf="http://www.w3.org/1999/02/22-rdf-syntax-ns#" xmlns:dc="http://purl.org/dc/elements/1.1/"><rdf:Description><dc:creator>RealFaviconGenerator</dc:creator><dc:source>https://realfavicongenerator.net</dc:source></rdf:Description></rdf:RDF></metadata><style>
    #light-icon {
      display: inline;
    }
    #dark-icon {
      display: none;
    }

    @media (prefers-color-scheme: dark) {
      #light-icon {
        display: none;
      }
      #dark-icon {
        display: inline;
      }
    }
  </style><g id="light-icon"><svg xmlns="http://www.w3.org/2000/svg" version="1.1" xmlns:xlink="http://www.w3.org/1999/xlink" width="1000" height="1000"><g clip-path="url(#SvgjsClipPath1218)"><rect width="1000" height="1000" fill="#ffffff"></rect><g transform="matrix(6.007810153199159,0,0,6.007810153199159,0,0)"><svg xmlns="http://www.w3.org/2000/svg" id="Layer_2" data-name="Layer 2" viewBox="0 0 166.45 166.45" width="166.45" height="166.45"><defs>
    <style>
      .cls-1 {
        fill: #fff;
      }

      .cls-2 {
        fill: #7d23cb;
      }

      .cls-3 {
        fill: #f39e0b;
      }

      .cls-4 {
        fill: #231f20;
      }

      .cls-5 {
        fill: #10b981;
      }

      .cls-6 {
        fill: #e11d48;
      }
    </style>
  <clipPath id="SvgjsClipPath1218"><rect width="1000" height="1000" x="0" y="0" rx="500" ry="500"></rect></clipPath></defs><g id="Layer_1-2" data-name="Layer 1">
    <g>
      <g>
        <path class="cls-1" d="M83.22,0c0,45.96-37.26,83.22-83.22,83.22,45.96,0,83.22,37.26,83.22,83.23,0-45.97,37.26-83.23,83.23-83.23-45.97,0-83.23-37.26-83.23-83.22ZM108.28,102.17c-2.23,3.28-5.28,5.9-9.16,7.87-3.87,1.97-8.34,2.96-13.39,2.96-5.74,0-10.77-1.22-15.1-3.66-4.32-2.44-7.7-5.84-10.12-10.18-2.42-4.35-3.62-9.42-3.62-15.2s1.17-11.28,3.53-15.87c2.35-4.58,5.76-8.16,10.21-10.76,4.46-2.59,9.79-3.88,16-3.88,5.18,0,9.68,1.05,13.49,3.14,3.81,2.1,6.75,4.94,8.8,8.52,2.06,3.57,3.08,7.59,3.08,12.04,0,3.77-1.86,5.66-5.58,5.66h-31.03c.81,5.91,2.8,10.31,5.97,13.2,3.17,2.89,7.15,4.33,11.95,4.33,3.64,0,6.81-.89,9.51-2.66,2.7-1.78,4.52-4.15,5.46-7.1.77-.86,1.48-1.29,2.12-1.29.94,0,1.39.69,1.35,2.06-.09,3.94-1.25,7.55-3.47,10.82Z"></path>
        <path class="cls-6" d="M83.22,166.45H0v-83.23c45.96,0,83.22,37.26,83.22,83.23Z"></path>
        <path class="cls-5" d="M83.22,0c0,45.96-37.26,83.22-83.22,83.22V0h83.22Z"></path>
      </g>
      <path class="cls-4" d="M110.4,89.29c-.64,0-1.35.43-2.12,1.29-.94,2.95-2.76,5.32-5.46,7.1-2.7,1.77-5.87,2.66-9.51,2.66-4.8,0-8.78-1.44-11.95-4.33-3.17-2.89-5.16-7.29-5.97-13.2h31.03c3.72,0,5.58-1.89,5.58-5.66,0-4.45-1.02-8.47-3.08-12.04-2.05-3.58-4.99-6.42-8.8-8.52-3.81-2.09-8.31-3.14-13.49-3.14-6.21,0-11.54,1.29-16,3.88-4.45,2.6-7.86,6.18-10.21,10.76-2.36,4.59-3.53,9.88-3.53,15.87s1.2,10.85,3.62,15.2c2.42,4.34,5.8,7.74,10.12,10.18,4.33,2.44,9.36,3.66,15.1,3.66,5.05,0,9.52-.99,13.39-2.96,3.88-1.97,6.93-4.59,9.16-7.87,2.22-3.27,3.38-6.88,3.47-10.82.04-1.37-.41-2.06-1.35-2.06ZM75,77.02c0-6.29.86-10.84,2.57-13.65,1.71-2.8,3.88-4.21,6.49-4.21,2.18,0,4.08,1.35,5.69,4.05,1.6,2.7,2.4,6.94,2.4,12.72,0,1.67-.79,2.51-2.37,2.51h-14.78v-1.42Z"></path>
      <path class="cls-1" d="M92.15,75.93c0,1.67-.79,2.51-2.37,2.51h-14.78v-1.42c0-6.29.86-10.84,2.57-13.65,1.71-2.8,3.88-4.21,6.49-4.21,2.18,0,4.08,1.35,5.69,4.05,1.6,2.7,2.4,6.94,2.4,12.72Z"></path>
      <path class="cls-3" d="M166.45,0v83.22c-45.97,0-83.23-37.26-83.23-83.22h83.23Z"></path>
      <path class="cls-2" d="M166.45,83.22v83.23h-83.23c0-45.97,37.26-83.23,83.23-83.23Z"></path>
    </g>
  </g></svg></g></g></svg></g><g id="dark-icon"><svg xmlns="http://www.w3.org/2000/svg" version="1.1" xmlns:xlink="http://www.w3.org/1999/xlink" width="1000" height="1000"><g clip-path="url(#SvgjsClipPath1219)"><rect width="1000" height="1000" fill="#ffffff"></rect><g transform="matrix(6.007810153199159,0,0,6.007810153199159,0,0)"><svg xmlns="http://www.w3.org/2000/svg" id="Layer_2" data-name="Layer 2" viewBox="0 0 166.45 166.45" width="166.45" height="166.45"><defs>
    <style>
      .cls-1 {
        fill: #fff;
      }

      .cls-2 {
        fill: #7d23cb;
      }

      .cls-3 {
        fill: #f39e0b;
      }

      .cls-4 {
        fill: #231f20;
      }

      .cls-5 {
        fill: #10b981;
      }

      .cls-6 {
        fill: #e11d48;
      }
    </style>
  <clipPath id="SvgjsClipPath1219"><rect width="1000" height="1000" x="0" y="0" rx="500" ry="500"></rect></clipPath></defs><g id="Layer_1-2" data-name="Layer 1">
    <g>
      <g>
        <path class="cls-1" d="M83.22,0c0,45.96-37.26,83.22-83.22,83.22,45.96,0,83.22,37.26,83.22,83.23,0-45.97,37.26-83.23,83.23-83.23-45.97,0-83.23-37.26-83.23-83.22ZM108.28,102.17c-2.23,3.28-5.28,5.9-9.16,7.87-3.87,1.97-8.34,2.96-13.39,2.96-5.74,0-10.77-1.22-15.1-3.66-4.32-2.44-7.7-5.84-10.12-10.18-2.42-4.35-3.62-9.42-3.62-15.2s1.17-11.28,3.53-15.87c2.35-4.58,5.76-8.16,10.21-10.76,4.46-2.59,9.79-3.88,16-3.88,5.18,0,9.68,1.05,13.49,3.14,3.81,2.1,6.75,4.94,8.8,8.52,2.06,3.57,3.08,7.59,3.08,12.04,0,3.77-1.86,5.66-5.58,5.66h-31.03c.81,5.91,2.8,10.31,5.97,13.2,3.17,2.89,7.15,4.33,11.95,4.33,3.64,0,6.81-.89,9.51-2.66,2.7-1.78,4.52-4.15,5.46-7.1.77-.86,1.48-1.29,2.12-1.29.94,0,1.39.69,1.35,2.06-.09,3.94-1.25,7.55-3.47,10.82Z"></path>
        <path class="cls-6" d="M83.22,166.45H0v-83.23c45.96,0,83.22,37.26,83.22,83.23Z"></path>
        <path class="cls-5" d="M83.22,0c0,45.96-37.26,83.22-83.22,83.22V0h83.22Z"></path>
      </g>
      <path class="cls-4" d="M110.4,89.29c-.64,0-1.35.43-2.12,1.29-.94,2.95-2.76,5.32-5.46,7.1-2.7,1.77-5.87,2.66-9.51,2.66-4.8,0-8.78-1.44-11.95-4.33-3.17-2.89-5.16-7.29-5.97-13.2h31.03c3.72,0,5.58-1.89,5.58-5.66,0-4.45-1.02-8.47-3.08-12.04-2.05-3.58-4.99-6.42-8.8-8.52-3.81-2.09-8.31-3.14-13.49-3.14-6.21,0-11.54,1.29-16,3.88-4.45,2.6-7.86,6.18-10.21,10.76-2.36,4.59-3.53,9.88-3.53,15.87s1.2,10.85,3.62,15.2c2.42,4.34,5.8,7.74,10.12,10.18,4.33,2.44,9.36,3.66,15.1,3.66,5.05,0,9.52-.99,13.39-2.96,3.88-1.97,6.93-4.59,9.16-7.87,2.22-3.27,3.38-6.88,3.47-10.82.04-1.37-.41-2.06-1.35-2.06ZM75,77.02c0-6.29.86-10.84,2.57-13.65,1.71-2.8,3.88-4.21,6.49-4.21,2.18,0,4.08,1.35,5.69,4.05,1.6,2.7,2.4,6.94,2.4,12.72,0,1.67-.79,2.51-2.37,2.51h-14.78v-1.42Z"></path>
      <path class="cls-1" d="M92.15,75.93c0,1.67-.79,2.51-2.37,2.51h-14.78v-1.42c0-6.29.86-10.84,2.57-13.65,1.71-2.8,3.88-4.21,6.49-4.21,2.18,0,4.08,1.35,5.69,4.05,1.6,2.7,2.4,6.94,2.4,12.72Z"></path>
      <path class="cls-3" d="M166.45,0v83.22c-45.97,0-83.23-37.26-83.23-83.22h83.23Z"></path>
      <path class="cls-2" d="M166.45,83.22v83.23h-83.23c0-45.97,37.26-83.23,83.23-83.23Z"></path>
    </g>
  </g></svg></g></g></svg></g></svg>