<svg xmlns="http://www.w3.org/2000/svg" viewBox="0 0 166.45 166.45" width="1000" height="1000">
  <circle cx="83.225" cy="83.225" r="83.225" fill="#ffffff"/>
  <path fill="#10B981" d="M83.22,0 C37.26,0,0,37.26,0,83.22 C45.96,83.22,83.22,45.96,83.22,0 Z"/>
  <path fill="#F39E0B" d="M83.22,0 C129.19,0,166.45,37.26,166.45,83.22 C120.49,83.22,83.22,45.96,83.22,0 Z"/>
  <path fill="#E11D48" d="M0,83.22 C0,129.19,37.26,166.45,83.22,166.45 C83.22,120.49,45.96,83.22,0,83.22 Z"/>
  <path fill="#7D23CB" d="M166.45,83.22 C166.45,129.19,129.19,166.45,83.22,166.45 C83.22,120.49,120.49,83.22,166.45,83.22 Z"/>
  <path fill="#000000" d="M111.75,91.35c.04-1.37-.41-2.06-1.35-2.06-.64,0-1.35.43-2.12,1.29-.94,2.95-2.76,5.32-5.46,7.1-2.7,1.77-5.87,2.66-9.51,2.66-4.8,0-8.78-1.44-11.95-4.33-3.17-2.89-5.16-7.29-5.97-13.2h31.03c3.72,0,5.58-1.89,5.58-5.66,0-4.45-1.02-8.47-3.08-12.04-2.05-3.58-4.99-6.42-8.8-8.52-3.81-2.09-8.31-3.14-13.49-3.14-6.21,0-11.54,1.29-16,3.88-4.45,2.6-7.86,6.18-10.21,10.76-2.36,4.59-3.53,9.88-3.53,15.87s1.2,10.85,3.62,15.2c2.42,4.34,5.8,7.74,10.12,10.18,4.33,2.44,9.36,3.66,15.1,3.66,5.05,0,9.52-.99,13.39-2.96,3.88-1.97,6.93-4.59,9.16-7.87,2.22-3.27,3.38-6.88,3.47-10.82ZM75,77.02c0-6.29.86-10.84,2.57-13.65,1.71-2.8,3.88-4.21,6.49-4.21,2.18,0,4.08,1.35,5.69,4.05,1.6,2.7,2.4,6.94,2.4,12.72,0,1.67-.79,2.51-2.37,2.51h-14.78v-1.42Z"/>
</svg>
